<svg xmlns="http://www.w3.org/2000/svg" viewBox="0 0 1280 520" role="img" aria-labelledby="title">
  <title id="title">sophi's purpose</title>
  <defs>
    <filter id="softShadow" x="-10%" y="-10%" width="120%" height="130%">
      <feDropShadow dx="10" dy="12" stdDeviation="0" flood-color="#142735" flood-opacity="0.28"/>
    </filter>
    <pattern id="paperGrid" width="8" height="8" patternUnits="userSpaceOnUse">
      <path d="M0 0H8M0 0V8" fill="none" stroke="#142735" stroke-width="0.5" opacity="0.22"/>
    </pattern>
  </defs>
  <g filter="url(#softShadow)">
    <g transform="translate(56 78) rotate(-2)">
      <path d="M95 12C45 45 22 88 23 136c1 56 43 97 101 97 54 0 96-40 96-92 0-35-19-64-49-80l32-45-55-16-29 49c-17-1-34 2-50 11 10-19 27-36 51-51L95 12Z" fill="#fffdf7" stroke="#142735" stroke-width="1" opacity="0.42"/>
      <path d="M95 12C45 45 22 88 23 136c1 56 43 97 101 97 54 0 96-40 96-92 0-35-19-64-49-80l32-45-55-16-29 49c-17-1-34 2-50 11 10-19 27-36 51-51L95 12Z" fill="url(#paperGrid)" opacity="0.5"/>
      <path d="M101 92c-26 13-42 37-42 68 0 36 28 62 66 62 38 0 67-27 67-64 0-31-16-53-43-65l24-39-31-9-28 48c-4-1-8-1-13-1Z" fill="#95c2fa"/>
      <path d="M268 12c-50 33-73 76-72 124 1 56 43 97 101 97 54 0 96-40 96-92 0-35-19-64-49-80l32-45-55-16-29 49c-17-1-34 2-50 11 10-19 27-36 51-51L268 12Z" fill="#fffdf7" stroke="#142735" stroke-width="1" opacity="0.42"/>
      <path d="M268 12c-50 33-73 76-72 124 1 56 43 97 101 97 54 0 96-40 96-92 0-35-19-64-49-80l32-45-55-16-29 49c-17-1-34 2-50 11 10-19 27-36 51-51L268 12Z" fill="url(#paperGrid)" opacity="0.5"/>
      <path d="M274 92c-26 13-42 37-42 68 0 36 28 62 66 62 38 0 67-27 67-64 0-31-16-53-43-65l24-39-31-9-28 48c-4-1-8-1-13-1Z" fill="#95c2fa"/>
    </g>
    <text x="420" y="230" fill="#1f2932" font-family="Impact, Haettenschweiler, 'Arial Black', sans-serif" font-size="145" letter-spacing="6">SOPHI'S</text>
    <text x="286" y="390" fill="#1f2932" font-family="Impact, Haettenschweiler, 'Arial Black', sans-serif" font-size="145" letter-spacing="6">PURPOSE</text>
    <g transform="translate(1030 300) rotate(-3) scale(.68)">
      <path d="M95 12C45 45 22 88 23 136c1 56 43 97 101 97 54 0 96-40 96-92 0-35-19-64-49-80l32-45-55-16-29 49c-17-1-34 2-50 11 10-19 27-36 51-51L95 12Z" fill="#fffdf7" stroke="#142735" stroke-width="1" opacity="0.42"/>
      <path d="M95 12C45 45 22 88 23 136c1 56 43 97 101 97 54 0 96-40 96-92 0-35-19-64-49-80l32-45-55-16-29 49c-17-1-34 2-50 11 10-19 27-36 51-51L95 12Z" fill="url(#paperGrid)" opacity="0.5"/>
      <path d="M101 92c-26 13-42 37-42 68 0 36 28 62 66 62 38 0 67-27 67-64 0-31-16-53-43-65l24-39-31-9-28 48c-4-1-8-1-13-1Z" fill="#95c2fa"/>
      <path d="M268 12c-50 33-73 76-72 124 1 56 43 97 101 97 54 0 96-40 96-92 0-35-19-64-49-80l32-45-55-16-29 49c-17-1-34 2-50 11 10-19 27-36 51-51L268 12Z" fill="#fffdf7" stroke="#142735" stroke-width="1" opacity="0.42"/>
      <path d="M268 12c-50 33-73 76-72 124 1 56 43 97 101 97 54 0 96-40 96-92 0-35-19-64-49-80l32-45-55-16-29 49c-17-1-34 2-50 11 10-19 27-36 51-51L268 12Z" fill="url(#paperGrid)" opacity="0.5"/>
      <path d="M274 92c-26 13-42 37-42 68 0 36 28 62 66 62 38 0 67-27 67-64 0-31-16-53-43-65l24-39-31-9-28 48c-4-1-8-1-13-1Z" fill="#95c2fa"/>
    </g>
  </g>
</svg>
